<svg xmlns="http://www.w3.org/2000/svg" viewBox="0 0 100 100">
  <rect width="100" height="100" rx="22" fill="#005A3C"/>
  <circle cx="50" cy="50" r="32" fill="white" opacity="0.9"/>
  <polygon points="50,30 60,38 56,50 44,50 40,38" fill="#005A3C"/>
  <polygon points="50,18 57,24 54,30 46,30 43,24" fill="#005A3C" opacity="0.7"/>
  <polygon points="66,28 71,36 66,43 60,38 60,30" fill="#005A3C" opacity="0.7"/>
  <polygon points="71,52 69,60 61,62 58,51 64,45" fill="#005A3C" opacity="0.7"/>
  <polygon points="56,74 50,78 44,74 46,63 54,63" fill="#005A3C" opacity="0.7"/>
  <polygon points="30,52 32,45 38,51 35,62 27,60" fill="#005A3C" opacity="0.7"/>
  <polygon points="22,28 34,30 34,38 28,43 22,36" fill="#005A3C" opacity="0.7"/>
</svg>
